<?xml version="1.0" encoding="UTF-8" standalone="no"?>
<!-- Created with Inkscape (http://www.inkscape.org/) -->

<svg
   width="57mm"
   height="65mm"
   viewBox="0 0 57 65"
   version="1.1"
   id="svg1"
   inkscape:version="1.3.2 (091e20e, 2023-11-25, custom)"
   sodipodi:docname="gb.svg"
   xml:space="preserve"
   xmlns:inkscape="http://www.inkscape.org/namespaces/inkscape"
   xmlns:sodipodi="http://sodipodi.sourceforge.net/DTD/sodipodi-0.dtd"
   xmlns:xlink="http://www.w3.org/1999/xlink"
   xmlns="http://www.w3.org/2000/svg"
   xmlns:svg="http://www.w3.org/2000/svg"><sodipodi:namedview
     id="namedview1"
     pagecolor="#ffffff"
     bordercolor="#000000"
     borderopacity="0.25"
     inkscape:showpageshadow="2"
     inkscape:pageopacity="0.0"
     inkscape:pagecheckerboard="true"
     inkscape:deskcolor="#d1d1d1"
     inkscape:document-units="mm"
     inkscape:zoom="2.8284271"
     inkscape:cx="133.28963"
     inkscape:cy="110.48544"
     inkscape:window-width="1920"
     inkscape:window-height="1027"
     inkscape:window-x="-8"
     inkscape:window-y="545"
     inkscape:window-maximized="1"
     inkscape:current-layer="layer2"
     showguides="true"><sodipodi:guide
       position="51.993288,63.870654"
       orientation="1,0"
       id="guide1"
       inkscape:locked="false" /><sodipodi:guide
       position="1.4055989,37.946353"
       orientation="0,-1"
       id="guide2"
       inkscape:locked="false" /><sodipodi:guide
       position="53.910768,62.053352"
       orientation="0,-1"
       id="guide3"
       inkscape:locked="false" /><sodipodi:guide
       position="51.595816,59.644253"
       orientation="0,-1"
       id="guide4"
       inkscape:locked="false" /><sodipodi:guide
       position="56.746331,58.703296"
       orientation="0,-1"
       id="guide7"
       inkscape:locked="false" /><sodipodi:guide
       position="52.835008,57.645076"
       orientation="0,-1"
       id="guide8"
       inkscape:locked="false" /><sodipodi:guide
       position="28.510499,6.7255209"
       orientation="0,-1"
       id="guide5"
       inkscape:locked="false" /><sodipodi:guide
       position="24.43005,5.8158596"
       orientation="-0.70710678,-0.70710678"
       id="guide6"
       inkscape:locked="false"
       inkscape:label=""
       inkscape:color="rgb(0,134,229)" /><sodipodi:guide
       position="32.595917,5.8158596"
       orientation="0.70710678,-0.70710678"
       id="guide9"
       inkscape:locked="false" /><sodipodi:guide
       position="28.510499,37.946353"
       orientation="1,0"
       id="guide10"
       inkscape:locked="false" /></sodipodi:namedview><defs
     id="defs1"><inkscape:path-effect
       effect="fillet_chamfer"
       id="path-effect4"
       is_visible="true"
       lpeversion="1"
       nodesatellites_param="F,0,0,1,0,0,0,1 @ F,0,0,1,0,0.8833,0,1 @ F,0,0,1,0,0.2356,0,1 @ F,0,0,1,0,0,0,1"
       radius="0"
       unit="px"
       method="auto"
       mode="F"
       chamfer_steps="1"
       flexible="false"
       use_knot_distance="true"
       apply_no_radius="true"
       apply_with_radius="true"
       only_selected="false"
       hide_knots="false" /><inkscape:path-effect
       effect="fillet_chamfer"
       id="path-effect3"
       is_visible="true"
       lpeversion="1"
       nodesatellites_param="F,0,0,1,0,0.88328438,0,1 @ F,0,0,1,0,0.8833,0,1 @ F,0,0,1,0,0,0,1 @ F,0,0,1,0,0.23564457,0,1"
       radius="0"
       unit="px"
       method="auto"
       mode="F"
       chamfer_steps="1"
       flexible="false"
       use_knot_distance="true"
       apply_no_radius="true"
       apply_with_radius="true"
       only_selected="false"
       hide_knots="false" /><filter
       id="cart-plastic-filter"
       x="0"
       y="-1.0194637e-09"
       width="1"
       height="1.0000006"><use
         id="use2"
         href="snes.svg#cart-plastic-filter" /></filter></defs><g
     inkscape:label="Background Image"
     inkscape:groupmode="layer"
     id="layer1"
     sodipodi:insensitive="true"><image
       width="57.320999"
       height="64.887352"
       preserveAspectRatio="none"
       xlink:href="gb.png"
       id="image1"
       x="-0.15000001"
       y="0"
       sodipodi:insensitive="true" /></g><g
     inkscape:groupmode="layer"
     id="layer2"
     inkscape:label="Cartridge"
     style="display:inline"><path
       id="rect6-0-8"
       style="display:inline;opacity:1;stroke-width:0.687116;stroke-miterlimit:2;fill:#808080;fill-opacity:1"
       inkscape:label="Base"
       d="M 0.90020345,0 C 0.40160546,0 0,0.40160495 0,0.90020345 V 1.7368449 2.0469035 5.0921956 c 0,0.1459859 0.08918823,0.2635498 0.19998779,0.2635498 h 0.0594279 V 6.3050415 C 0.11354116,6.3256115 0,6.4447689 0,6.5964966 V 7.0548665 C 0,7.2066062 0.11352396,7.326283 0.25941569,7.3468384 V 8.3328247 C 0.11352396,8.3533807 0,8.4730568 0,8.6247965 v 0.45837 C 0,9.2348942 0.11354116,9.354051 0.25941569,9.3746216 V 10.310482 C 0.11354116,10.331052 0,10.450726 0,10.602454 v 0.457853 c 0,0.15174 0.11352396,0.271416 0.25941569,0.291972 v 1.000455 C 0.11352396,12.37329 0,12.492966 0,12.644706 v 0.45837 c 0,0.151728 0.11354116,0.270885 0.25941569,0.291455 v 0.905888 H 0.24287923 C 0.10820462,14.300419 0,14.408942 0,14.543815 V 26.81025 c 0,0.134872 0.10820462,0.243396 0.24287923,0.243396 H 0.18138428 V 64.887512 H 56.836324 V 27.053646 h -0.05839 c 0.134674,0 0.242879,-0.108524 0.242879,-0.243396 V 14.543815 c 0,-0.134873 -0.108205,-0.243396 -0.242879,-0.243396 h -0.03772 v -0.905371 c 0.146173,-0.02031 0.259932,-0.140033 0.259932,-0.291972 v -0.45837 c 0,-0.151916 -0.113791,-0.271634 -0.259932,-0.291972 v -1.000455 c 0.146141,-0.02034 0.259932,-0.140056 0.259932,-0.291972 v -0.457853 c 0,-0.151939 -0.113759,-0.27218 -0.259932,-0.292489 V 9.3751383 c 0.146173,-0.020309 0.259932,-0.1400331 0.259932,-0.2919718 v -0.45837 c 0,-0.1519155 -0.113791,-0.2716343 -0.259932,-0.2919718 V 7.3468384 c 0.146141,-0.020338 0.259932,-0.1400563 0.259932,-0.2919719 V 6.5964966 c 0,-0.1519386 -0.113759,-0.2716629 -0.259932,-0.2919719 V 5.3557454 h 0.0098 c 0.1385,0 0.250114,-0.1116141 0.250114,-0.2501139 v -1.254187 c 0,-0.0032 -9.82e-4,-0.0061 -10e-4,-0.0093 1.32e-4,-0.0062 10e-4,-0.012354 10e-4,-0.018604 0,-0.4859365 -0.401607,-0.876949 -0.900203,-0.876949 H 53.782247 51.993209 V 2.0469035 1.7368449 0.90020345 C 51.993209,0.40160495 51.592122,0 51.093522,0 Z"
       filter="url(#use2)" /><rect
       style="display:inline;opacity:0.7;stroke-width:0.618206;stroke-miterlimit:2"
       id="rect9"
       width="44.346321"
       height="39.439312"
       x="6.3727078"
       y="17.897202"
       inkscape:label="Label Space"
       ry="1"
       rx="1"
       sodipodi:insensitive="true" /><g
       id="g10"
       inkscape:label="Brand"><rect
         style="opacity:0.299;fill:#ff0000;stroke-width:0.611402;stroke-miterlimit:2"
         id="rect10"
         width="44.029392"
         height="11.704803"
         x="6.4958034"
         y="3.9589875"
         ry="5.9897861"
         inkscape:label="Indent"
         rx="5.6640801" /></g><path
       id="path1"
       style="display:inline;opacity:0.7;fill:#00ff00;stroke-width:0.500261;stroke-miterlimit:2"
       d="M 24.806755 58.274479 A 0.53286707 0.53286707 0 0 0 24.273971 58.807263 A 0.53286707 0.53286707 0 0 0 24.432617 59.184501 L 24.424866 59.183984 L 28.133683 62.892802 L 28.13575 62.892802 A 0.53286707 0.53286707 0 0 0 28.510404 63.048865 A 0.53286707 0.53286707 0 0 0 28.885059 62.892802 L 28.887126 62.892802 L 32.595943 59.183984 L 32.593876 59.183984 A 0.53286707 0.53286707 0 0 0 32.752006 58.807263 A 0.53286707 0.53286707 0 0 0 32.219222 58.274479 L 24.806755 58.274479 z "
       inkscape:label="Curved Triangle" /><g
       id="g1"><text
         xml:space="preserve"
         style="font-style:italic;font-variant:normal;font-weight:bold;font-stretch:normal;font-size:4.26099px;line-height:1;font-family:'Gill Sans';-inkscape-font-specification:'Gill Sans, Bold Italic';font-variant-ligatures:normal;font-variant-caps:normal;font-variant-numeric:normal;font-variant-east-asian:normal;opacity:0.7;fill:#00ff00;stroke-width:1.45584;stroke-miterlimit:2"
         x="25.145834"
         y="11.469222"
         id="text1"
         inkscape:label="Gameplay"><tspan
           sodipodi:role="line"
           id="tspan1"
           style="font-style:italic;font-variant:normal;font-weight:bold;font-stretch:normal;font-size:4.26099px;font-family:'Gill Sans';-inkscape-font-specification:'Gill Sans, Bold Italic';font-variant-ligatures:normal;font-variant-caps:normal;font-variant-numeric:normal;font-variant-east-asian:normal;stroke-width:1.45584"
           x="25.145834"
           y="11.469222">GAMEPLAY</tspan></text><text
         xml:space="preserve"
         style="display:inline;font-size:2.09886px;line-height:1;font-family:'TT Directors DEMO Thin Rough';-inkscape-font-specification:'TT Directors DEMO Thin Rough';opacity:0.7;fill:#00ff00;stroke-width:0.717112;stroke-miterlimit:2"
         x="10.606955"
         y="11.003844"
         id="text3"
         inkscape:label="Libretro"><tspan
           sodipodi:role="line"
           id="tspan3"
           style="font-style:normal;font-variant:normal;font-weight:normal;font-stretch:normal;font-size:2.09886px;font-family:'RO Spritendo';-inkscape-font-specification:'RO Spritendo';stroke-width:0.717112"
           x="10.606955"
           y="11.003844">Libretro</tspan></text></g></g><g
     inkscape:groupmode="layer"
     id="layer3"
     inkscape:label="Label" /></svg>
